# xmcd
#
# Track frame offsets: 
#        150
#        19544
#        31515
#        46394
#        67072
#        83378
#        99521
#        113706
#        130338
#        147392
#        160104
#        174285
#
# Disc length: 2513 seconds
#
# Revision: 1
# Processed by: cddbd v1.5.2PL0 Copyright (c) Steve Scherf et al.
# Submitted via: ExactAudioCopyFreeDBPlugin 1.0
#
DISCID=8c09cf0c
DTITLE=Kaimiņi - Atnāc...
DYEAR=2005
DGENRE=Latvian
TTITLE0=Bija diena
TTITLE1=Ja nebaidies
TTITLE2=Reiz bārā
TTITLE3=Nesaki
TTITLE4=Meklējot vizbules
TTITLE5=Telefons
TTITLE6=Tā biji tu
TTITLE7=Labāk ies
TTITLE8=Par lapām
TTITLE9=Manai meitenei
TTITLE10=Nepareizā
TTITLE11=Atnāc
EXTD=
EXTT0=
EXTT1=
EXTT2=
EXTT3=
EXTT4=
EXTT5=
EXTT6=
EXTT7=
EXTT8=
EXTT9=
EXTT10=
EXTT11=
PLAYORDER=
